<svg id="Layer_1" data-name="Layer 1" xmlns="http://www.w3.org/2000/svg" viewBox="0 0 186.744 186.743"><defs><style>.cls-1{fill:#1c1c1c;}.cls-1,.cls-2,.cls-3,.cls-4,.cls-5{stroke:#1c1c1c;}.cls-1,.cls-4{stroke-linejoin:round;}.cls-1,.cls-2,.cls-3,.cls-4{stroke-width:2px;}.cls-2,.cls-3,.cls-4,.cls-5{fill:none;}.cls-2{stroke-linecap:round;}.cls-2,.cls-3,.cls-5{stroke-miterlimit:10;}.cls-5{stroke-width:2.07px;}</style></defs><path class="cls-1" d="M90.111,127.653l-3.847,8.339a1.921,1.921,0,0,0,.443,2.214l3.4,3.22Z"/><path class="cls-1" d="M96.692,127.653l3.847,8.339a1.921,1.921,0,0,1-.443,2.214l-3.4,3.22Z"/><path class="cls-2" d="M63.028,122.409c.342.155.667.326.978.5,2.047,1.1,5.027,3.833,5.384,5.57a42.529,42.529,0,0,1,1.055,10.533"/><path class="cls-2" d="M116.3,139.009a42.467,42.467,0,0,1,1.055-10.533c.356-1.737,3.336-4.469,5.384-5.57.31-.171.636-.342.977-.5"/><path class="cls-3" d="M136.017,113.21c1.877,4.809-6.531,6.423-12.287,9.2l-.093,7.648a17.382,17.382,0,0,1-.015,3.6,16.583,16.583,0,0,1-5.988,10.813,35.356,35.356,0,0,0-9.044,11.914,4.066,4.066,0,0,1-.7,1.055,8.373,8.373,0,0,1-6.174,2.7H85.026a8.371,8.371,0,0,1-6.174-2.7,4.069,4.069,0,0,1-.7-1.055,35.356,35.356,0,0,0-9.044-11.914,16.588,16.588,0,0,1-5.988-10.813,17.452,17.452,0,0,1-.015-3.6l-.093-7.648c-5.756-2.776-14.164-4.39-12.286-9.2,2-5.088.915-11.086.2-13.072a49.006,49.006,0,1,1,84.887,0C135.1,102.124,134.016,108.122,136.017,113.21Z"/><line class="cls-2" x1="79.242" y1="157.814" x2="79.242" y2="146.166"/><line class="cls-2" x1="86.324" y1="159.705" x2="86.324" y2="148.256"/><line class="cls-2" x1="93.401" y1="159.705" x2="93.401" y2="150.952"/><line class="cls-2" x1="100.479" y1="159.705" x2="100.479" y2="148.256"/><line class="cls-2" x1="107.55" y1="157.767" x2="107.55" y2="146.166"/><circle class="cls-3" cx="93.401" cy="70.051" r="35.046"/><polyline class="cls-4" points="73.465 98.871 90.921 79.416 77.587 78.901 94.997 60.602 84.395 59.915 106.082 37.384"/><polyline class="cls-4" points="106.301 37.478 102.335 51.124 113.78 51.905 100.977 70.735 113.78 73.374 73.621 98.996"/><ellipse class="cls-3" cx="78.048" cy="116.375" rx="7.244" ry="6.218"/><ellipse class="cls-3" cx="108.755" cy="116.375" rx="7.244" ry="6.218"/><circle class="cls-5" cx="93.372" cy="93.372" r="92.337" transform="translate(-35.143 123.71) rotate(-58.283)"/><circle class="cls-3" cx="93.372" cy="93.372" r="82.017"/></svg>