<svg id="Layer_1" data-name="Layer 1" xmlns="http://www.w3.org/2000/svg" viewBox="0 0 186.674 186.673"><defs><style>.cls-1{fill:#304eb7;}.cls-1,.cls-2,.cls-3,.cls-4{stroke:#304eb7;stroke-width:2px;}.cls-1,.cls-4{stroke-linejoin:round;}.cls-2,.cls-3,.cls-4{fill:none;}.cls-2{stroke-linecap:round;}.cls-2,.cls-3{stroke-miterlimit:10;}</style></defs><path class="cls-1" d="M90.076,127.618l-3.847,8.338a1.922,1.922,0,0,0,.443,2.215l3.4,3.219Z"/><path class="cls-1" d="M96.657,127.618l3.847,8.338a1.922,1.922,0,0,1-.443,2.215l-3.4,3.219Z"/><path class="cls-2" d="M62.993,122.374c.342.155.667.326.978.5,2.047,1.1,5.027,3.833,5.384,5.571a42.529,42.529,0,0,1,1.055,10.533"/><path class="cls-2" d="M116.264,138.974a42.467,42.467,0,0,1,1.055-10.533c.356-1.738,3.336-4.469,5.384-5.571.31-.17.636-.341.977-.5"/><path class="cls-3" d="M135.982,113.175c1.877,4.809-6.531,6.422-12.286,9.2l-.094,7.648a17.382,17.382,0,0,1-.015,3.6,16.581,16.581,0,0,1-5.988,10.812,35.365,35.365,0,0,0-9.044,11.914,4.007,4.007,0,0,1-.7,1.055,8.368,8.368,0,0,1-6.174,2.7H84.991a8.368,8.368,0,0,1-6.174-2.7,4.036,4.036,0,0,1-.7-1.055,35.365,35.365,0,0,0-9.044-11.914,16.585,16.585,0,0,1-5.988-10.812,17.452,17.452,0,0,1-.015-3.6l-.093-7.648c-5.756-2.777-14.163-4.39-12.286-9.2,2-5.088.915-11.086.2-13.072a49.006,49.006,0,1,1,84.887,0C135.067,102.089,133.981,108.087,135.982,113.175Z"/><line class="cls-2" x1="79.207" y1="157.778" x2="79.207" y2="146.13"/><line class="cls-2" x1="86.289" y1="159.67" x2="86.289" y2="148.221"/><line class="cls-2" x1="93.366" y1="159.67" x2="93.366" y2="150.916"/><line class="cls-2" x1="100.444" y1="159.67" x2="100.444" y2="148.221"/><line class="cls-2" x1="107.515" y1="157.731" x2="107.515" y2="146.13"/><circle class="cls-3" cx="93.366" cy="70.016" r="35.046"/><polyline class="cls-4" points="73.43 98.836 90.886 79.381 77.552 78.866 94.962 60.566 84.36 59.879 106.048 37.349"/><polyline class="cls-4" points="106.266 37.442 102.3 51.089 113.745 51.869 100.942 70.7 113.745 73.339 73.586 98.961"/><ellipse class="cls-3" cx="78.013" cy="116.34" rx="7.244" ry="6.218"/><ellipse class="cls-3" cx="108.72" cy="116.34" rx="7.244" ry="6.218"/><circle class="cls-3" cx="93.337" cy="93.337" r="82.017"/><circle class="cls-3" cx="93.337" cy="93.337" r="92.337" transform="translate(-35.13 123.664) rotate(-58.283)"/></svg>