<svg id="Layer_1" data-name="Layer 1" xmlns="http://www.w3.org/2000/svg" viewBox="0 0 186.744 186.743"><defs><style>.cls-1{fill:#1c1c1c;}.cls-1,.cls-2,.cls-3,.cls-4,.cls-5,.cls-6{stroke:#1c1c1c;}.cls-1,.cls-4,.cls-5{stroke-linejoin:round;}.cls-1,.cls-2,.cls-3,.cls-4,.cls-5{stroke-width:2px;}.cls-2,.cls-3,.cls-6{fill:none;stroke-miterlimit:10;}.cls-2{stroke-linecap:round;}.cls-4{fill:#304eb7;}.cls-5{fill:#e56363;}.cls-6{stroke-width:2.07px;}</style></defs><path class="cls-1" d="M90.111,127.651l-3.847,8.339a1.921,1.921,0,0,0,.443,2.214l3.4,3.22Z"/><path class="cls-1" d="M96.692,127.651l3.847,8.339a1.921,1.921,0,0,1-.443,2.214l-3.4,3.22Z"/><path class="cls-2" d="M63.028,122.408c.342.155.667.326.978.5,2.047,1.1,5.027,3.833,5.384,5.571a42.529,42.529,0,0,1,1.055,10.533"/><path class="cls-2" d="M116.3,139.008a42.467,42.467,0,0,1,1.055-10.533c.356-1.738,3.336-4.469,5.384-5.571.31-.17.636-.341.977-.5"/><path class="cls-3" d="M136.017,113.212c1.88,4.81-6.53,6.42-12.29,9.2l-.09,7.64a18.041,18.041,0,0,1-.01,3.6,16.647,16.647,0,0,1-5.99,10.82,35.317,35.317,0,0,0-9.05,11.91,3.9,3.9,0,0,1-.69,1.05,2.763,2.763,0,0,1-.35.33,8.293,8.293,0,0,1-5.83,2.37H85.027a8.361,8.361,0,0,1-6.18-2.7,3.9,3.9,0,0,1-.69-1.05,35.317,35.317,0,0,0-9.05-11.91,16.647,16.647,0,0,1-5.99-10.82,18.041,18.041,0,0,1-.01-3.6l-.09-7.64c-5.76-2.78-14.17-4.39-12.29-9.2a21.152,21.152,0,0,0,.2-13.07,49.005,49.005,0,1,1,84.89,0A21.152,21.152,0,0,0,136.017,113.212Z"/><line class="cls-2" x1="79.242" y1="157.812" x2="79.242" y2="146.164"/><line class="cls-2" x1="86.324" y1="159.704" x2="86.324" y2="148.255"/><line class="cls-2" x1="93.401" y1="159.704" x2="93.401" y2="150.95"/><line class="cls-2" x1="100.479" y1="159.704" x2="100.479" y2="148.255"/><line class="cls-2" x1="107.55" y1="157.765" x2="107.55" y2="146.164"/><path class="cls-4" d="M128.444,70.054a35.044,35.044,0,0,1-54.43,29.19l40.33-25.73-13.16-2.71,13.16-19.35-11.77-.81,3.83-13.15A35.06,35.06,0,0,1,128.444,70.054Z"/><path class="cls-5" d="M95.034,60.394l-17.89,18.8,13.7.53-17.25,19.24h-.01a35.054,35.054,0,0,1,32.16-61.72l-21.61,22.44Z"/><ellipse class="cls-3" cx="78.048" cy="116.373" rx="7.244" ry="6.218"/><ellipse class="cls-3" cx="108.755" cy="116.373" rx="7.244" ry="6.218"/><circle class="cls-6" cx="93.372" cy="93.372" r="92.337" transform="translate(-35.143 123.71) rotate(-58.283)"/><path class="cls-5" d="M175.387,93.372a82.019,82.019,0,0,1-82.02,82.02v-15.26h8.35a8.293,8.293,0,0,0,5.83-2.37,2.763,2.763,0,0,0,.35-.33,3.9,3.9,0,0,0,.69-1.05,35.317,35.317,0,0,1,9.05-11.91,16.647,16.647,0,0,0,5.99-10.82,18.041,18.041,0,0,0,.01-3.6l.09-7.64c5.76-2.78,14.17-4.39,12.29-9.2a21.152,21.152,0,0,1-.2-13.07A49.039,49.039,0,0,0,93.367,26.6V11.351A82.019,82.019,0,0,1,175.387,93.372Z"/><path class="cls-4" d="M44.367,75.611a48.909,48.909,0,0,0,6.56,24.531,21.152,21.152,0,0,1-.2,13.07c-1.88,4.81,6.53,6.42,12.29,9.2l.09,7.64a18.041,18.041,0,0,0,.01,3.6,16.647,16.647,0,0,0,5.99,10.82,35.317,35.317,0,0,1,9.05,11.91,3.9,3.9,0,0,0,.69,1.05,8.361,8.361,0,0,0,6.18,2.7h8.34v15.26a82.021,82.021,0,0,1,0-164.041V26.6A49.005,49.005,0,0,0,44.367,75.611Z"/><path class="cls-3" d="M136.017,113.212c1.88,4.81-6.53,6.42-12.29,9.2l-.09,7.64a18.041,18.041,0,0,1-.01,3.6,16.647,16.647,0,0,1-5.99,10.82,35.317,35.317,0,0,0-9.05,11.91,3.9,3.9,0,0,1-.69,1.05,2.763,2.763,0,0,1-.35.33,8.293,8.293,0,0,1-5.83,2.37H85.027a8.361,8.361,0,0,1-6.18-2.7,3.9,3.9,0,0,1-.69-1.05,35.317,35.317,0,0,0-9.05-11.91,16.647,16.647,0,0,1-5.99-10.82,18.041,18.041,0,0,1-.01-3.6l-.09-7.64c-5.76-2.78-14.17-4.39-12.29-9.2a21.152,21.152,0,0,0,.2-13.07,49.005,49.005,0,1,1,84.89,0A21.152,21.152,0,0,0,136.017,113.212Z"/></svg>