<svg id="Layer_1" data-name="Layer 1" xmlns="http://www.w3.org/2000/svg" viewBox="0 0 381.352 136.53"><defs><style>.cls-1,.cls-2{fill:#1c1c1c;}.cls-2,.cls-3,.cls-4,.cls-5,.cls-6{stroke:#1c1c1c;stroke-width:3px;}.cls-2,.cls-5,.cls-6{stroke-linejoin:round;}.cls-3,.cls-4{fill:none;stroke-miterlimit:10;}.cls-3{stroke-linecap:round;}.cls-5{fill:#304eb7;}.cls-6{fill:#e56363;}</style></defs><path class="cls-1" d="M163.59,25.651h1.2a1.064,1.064,0,0,1,1.2,1.2v81.859a1.064,1.064,0,0,1-1.2,1.2h-1.2a1.064,1.064,0,0,1-1.2-1.2v-4.455c0-.24-.06-.361-.181-.361a.662.662,0,0,0-.421.241,14.187,14.187,0,0,1-5.236,5,14.95,14.95,0,0,1-7.283,1.746A15.264,15.264,0,0,1,137.527,106q-4.513-4.877-4.514-12.58V66.1q0-7.7,4.514-12.58a15.264,15.264,0,0,1,11.738-4.876,15.027,15.027,0,0,1,7.222,1.747,14.043,14.043,0,0,1,5.3,4.995.651.651,0,0,0,.421.24c.121,0,.181-.119.181-.36V26.854A1.064,1.064,0,0,1,163.59,25.651ZM158.835,103.6a14.558,14.558,0,0,0,3.551-10.173V66.1a14.56,14.56,0,0,0-3.551-10.172,11.729,11.729,0,0,0-9.089-3.913,12.381,12.381,0,0,0-9.45,3.913A14.261,14.261,0,0,0,136.625,66.1V93.424A14.258,14.258,0,0,0,140.3,103.6a12.377,12.377,0,0,0,9.45,3.912A11.725,11.725,0,0,0,158.835,103.6Z"/><path class="cls-1" d="M211.379,80.544H183.451a.426.426,0,0,0-.481.481v12.4a14.407,14.407,0,0,0,3.611,10.173,13.183,13.183,0,0,0,17.456,1.143,13.119,13.119,0,0,0,4.454-7.343,1.346,1.346,0,0,1,1.324-1.084h1.2a1.039,1.039,0,0,1,.9.421,1.273,1.273,0,0,1,.181,1.024,15.521,15.521,0,0,1-5.477,9.51,16.238,16.238,0,0,1-10.654,3.612A15.785,15.785,0,0,1,183.993,106q-4.635-4.877-4.634-12.58V66.1a17.562,17.562,0,0,1,4.634-12.519,17,17,0,0,1,23.956,0A17.57,17.57,0,0,1,212.583,66.1V79.34A1.064,1.064,0,0,1,211.379,80.544Zm-24.8-24.618A14.409,14.409,0,0,0,182.97,66.1V76.932a.425.425,0,0,0,.481.482h25.04a.426.426,0,0,0,.481-.482V66.1a14.409,14.409,0,0,0-3.611-10.172,13.223,13.223,0,0,0-18.78,0Z"/><path class="cls-1" d="M251.465,54.06q4.212,5.416,4.213,14.565v40.088a1.064,1.064,0,0,1-1.2,1.2h-1.2a1.064,1.064,0,0,1-1.2-1.2V103.3c0-.24-.081-.38-.241-.421s-.282.06-.361.3a14.654,14.654,0,0,1-6.139,5.778,18.861,18.861,0,0,1-8.547,1.927,15.825,15.825,0,0,1-10.594-3.672q-4.334-3.671-4.334-12.7,0-9.63,5.177-14.325t13.844-4.7h10.714a.426.426,0,0,0,.481-.482V68.385q0-7.463-3.25-11.918t-9.39-4.454A12.931,12.931,0,0,0,231,54.963a10.934,10.934,0,0,0-4.092,7.643c0,.723-.4,1.084-1.2,1.084l-1.325-.12a1.1,1.1,0,0,1-.9-.361,1.091,1.091,0,0,1-.181-.963,14.326,14.326,0,0,1,5.357-9.872,16.854,16.854,0,0,1,10.894-3.732Q247.249,48.642,251.465,54.06Zm-3.792,49.6q4.394-3.849,4.394-11.075V79.22a.427.427,0,0,0-.481-.482H240.992q-7.1,0-11.316,3.972t-4.213,11.677q0,6.621,3.25,9.871a11.555,11.555,0,0,0,8.547,3.251A15.272,15.272,0,0,0,247.673,103.656Z"/><path class="cls-1" d="M297.932,25.651h1.2a1.064,1.064,0,0,1,1.2,1.2v81.859a1.064,1.064,0,0,1-1.2,1.2h-1.2a1.063,1.063,0,0,1-1.2-1.2v-4.455c0-.24-.061-.361-.181-.361a.662.662,0,0,0-.422.241,14.187,14.187,0,0,1-5.236,5,14.948,14.948,0,0,1-7.283,1.746A15.26,15.26,0,0,1,271.87,106q-4.515-4.877-4.514-12.58V66.1q0-7.7,4.514-12.58a15.26,15.26,0,0,1,11.737-4.876,15.028,15.028,0,0,1,7.223,1.747,14.041,14.041,0,0,1,5.3,4.995.651.651,0,0,0,.422.24c.12,0,.181-.119.181-.36V26.854A1.063,1.063,0,0,1,297.932,25.651ZM293.177,103.6a14.558,14.558,0,0,0,3.552-10.173V66.1a14.561,14.561,0,0,0-3.552-10.172,11.728,11.728,0,0,0-9.088-3.913,12.382,12.382,0,0,0-9.451,3.913A14.261,14.261,0,0,0,270.967,66.1V93.424a14.258,14.258,0,0,0,3.671,10.173,12.378,12.378,0,0,0,9.451,3.912A11.724,11.724,0,0,0,293.177,103.6Z"/><path class="cls-1" d="M315.4,34.064a4.205,4.205,0,0,1-1.2-3.107,4.079,4.079,0,0,1,1.2-3.007,4.2,4.2,0,0,1,3.106-1.2,4.11,4.11,0,0,1,4.21,4.209,4.205,4.205,0,0,1-1.2,3.107,4.082,4.082,0,0,1-3.007,1.2A4.2,4.2,0,0,1,315.4,34.064Zm1.311,74.649V50.81a1.064,1.064,0,0,1,1.2-1.2h1.2a1.065,1.065,0,0,1,1.2,1.2v57.9a1.064,1.064,0,0,1-1.2,1.2h-1.2A1.063,1.063,0,0,1,316.71,108.713Z"/><path class="cls-1" d="M352.7,52.735H342.47a.426.426,0,0,0-.482.482V94.748q0,6.622,2.227,9.21t7.043,2.588h1.324a1.066,1.066,0,0,1,1.2,1.2v.963a1.064,1.064,0,0,1-1.2,1.2h-1.806q-6.14,0-9.329-3.19t-3.19-11.737V53.217a.427.427,0,0,0-.482-.482h-4.936a1.063,1.063,0,0,1-1.2-1.2V50.81a1.064,1.064,0,0,1,1.2-1.2h4.936a.426.426,0,0,0,.482-.482V35.641a1.064,1.064,0,0,1,1.2-1.2h1.324a1.064,1.064,0,0,1,1.2,1.2V49.124a.426.426,0,0,0,.482.482H352.7a1.066,1.066,0,0,1,1.2,1.2v.722A1.064,1.064,0,0,1,352.7,52.735Z"/><path class="cls-1" d="M380.148,52.735H369.916a.427.427,0,0,0-.483.482V94.748q0,6.622,2.227,9.21t7.042,2.588h1.325a1.067,1.067,0,0,1,1.205,1.2v.963a1.066,1.066,0,0,1-1.205,1.2h-1.805q-6.141,0-9.331-3.19T365.7,94.989V53.217a.426.426,0,0,0-.48-.482h-4.937a1.063,1.063,0,0,1-1.2-1.2V50.81a1.064,1.064,0,0,1,1.2-1.2h4.937a.425.425,0,0,0,.48-.482V35.641a1.065,1.065,0,0,1,1.2-1.2h1.325a1.064,1.064,0,0,1,1.2,1.2V49.124a.426.426,0,0,0,.483.482h10.232a1.066,1.066,0,0,1,1.2,1.2v.722A1.064,1.064,0,0,1,380.148,52.735Z"/><path class="cls-2" d="M47.245,102.546,43.4,110.885a1.921,1.921,0,0,0,.443,2.214l3.4,3.22Z"/><path class="cls-2" d="M53.826,102.546l3.847,8.339a1.921,1.921,0,0,1-.443,2.214l-3.4,3.22Z"/><path class="cls-3" d="M20.162,97.3c.341.155.667.325.977.5,2.048,1.1,5.028,3.833,5.385,5.57A42.489,42.489,0,0,1,27.578,113.9"/><path class="cls-3" d="M73.432,113.9a42.529,42.529,0,0,1,1.055-10.533c.357-1.737,3.337-4.469,5.384-5.57.311-.171.636-.341.978-.5"/><path class="cls-4" d="M93.151,88.1c1.877,4.809-6.531,6.423-12.287,9.2l-.093,7.647a17.452,17.452,0,0,1-.015,3.6,16.588,16.588,0,0,1-5.988,10.813,35.365,35.365,0,0,0-9.044,11.914,4.057,4.057,0,0,1-.7,1.055,8.371,8.371,0,0,1-6.175,2.7H42.159a8.369,8.369,0,0,1-6.174-2.7,4.032,4.032,0,0,1-.7-1.055,35.365,35.365,0,0,0-9.044-11.914,16.583,16.583,0,0,1-5.988-10.813,17.452,17.452,0,0,1-.015-3.6L20.147,97.3C14.391,94.526,5.983,92.912,7.86,88.1c2-5.088.916-11.086.2-13.072a49.006,49.006,0,1,1,84.887,0C92.235,77.017,91.149,83.015,93.151,88.1Z"/><line class="cls-3" x1="36.376" y1="132.707" x2="36.376" y2="121.059"/><line class="cls-3" x1="43.458" y1="134.598" x2="43.458" y2="123.15"/><line class="cls-3" x1="50.535" y1="134.598" x2="50.535" y2="125.845"/><line class="cls-3" x1="57.613" y1="134.598" x2="57.613" y2="123.15"/><line class="cls-3" x1="64.684" y1="132.66" x2="64.684" y2="121.059"/><path class="cls-5" d="M85.578,44.949a35.045,35.045,0,0,1-54.431,29.19l40.33-25.73L58.318,45.7l13.159-19.35-11.77-.81,3.831-13.15A35.06,35.06,0,0,1,85.578,44.949Z"/><path class="cls-6" d="M52.168,35.289l-17.891,18.8,13.7.53-17.25,19.24h-.01a35.054,35.054,0,0,1,32.161-61.72L41.267,34.579Z"/><ellipse class="cls-4" cx="35.181" cy="91.268" rx="7.244" ry="6.218"/><ellipse class="cls-4" cx="65.889" cy="91.268" rx="7.244" ry="6.218"/></svg>