<svg id="Layer_1" data-name="Layer 1" xmlns="http://www.w3.org/2000/svg" viewBox="0 0 187.138 187.138"><defs><style>.cls-1{fill:#e56363;}.cls-1,.cls-2,.cls-3,.cls-4,.cls-5{stroke:#e56363;}.cls-1,.cls-4{stroke-linejoin:round;}.cls-1,.cls-2,.cls-3,.cls-4{stroke-width:2px;}.cls-2,.cls-3,.cls-4,.cls-5{fill:none;}.cls-2{stroke-linecap:round;}.cls-2,.cls-3,.cls-5{stroke-miterlimit:10;}.cls-5{stroke-width:2.465px;}</style></defs><path class="cls-1" d="M90.308,127.85l-3.847,8.339A1.923,1.923,0,0,0,86.9,138.4l3.4,3.22Z"/><path class="cls-1" d="M96.889,127.85l3.847,8.339a1.921,1.921,0,0,1-.443,2.214l-3.4,3.22Z"/><path class="cls-2" d="M63.226,122.606c.341.155.667.326.977.5,2.048,1.1,5.027,3.832,5.384,5.57a42.467,42.467,0,0,1,1.055,10.533"/><path class="cls-2" d="M116.5,139.206a42.467,42.467,0,0,1,1.055-10.533c.357-1.738,3.336-4.469,5.384-5.57.31-.171.636-.342.977-.5"/><path class="cls-3" d="M136.214,113.407c1.877,4.809-6.531,6.422-12.286,9.2l-.093,7.648a17.452,17.452,0,0,1-.016,3.6,16.583,16.583,0,0,1-5.988,10.813,35.374,35.374,0,0,0-9.044,11.913,4.007,4.007,0,0,1-.7,1.055,8.368,8.368,0,0,1-6.174,2.7H85.223a8.368,8.368,0,0,1-6.174-2.7,4.007,4.007,0,0,1-.7-1.055,35.361,35.361,0,0,0-9.044-11.913,16.583,16.583,0,0,1-5.988-10.813,17.452,17.452,0,0,1-.016-3.6l-.093-7.648c-5.755-2.777-14.163-4.39-12.286-9.2,2-5.088.915-11.086.2-13.072a49.006,49.006,0,1,1,84.887,0C135.3,102.321,134.213,108.319,136.214,113.407Z"/><line class="cls-2" x1="79.44" y1="158.01" x2="79.44" y2="146.362"/><line class="cls-2" x1="86.521" y1="159.902" x2="86.521" y2="148.453"/><line class="cls-2" x1="93.599" y1="159.902" x2="93.599" y2="151.149"/><line class="cls-2" x1="100.676" y1="159.902" x2="100.676" y2="148.453"/><line class="cls-2" x1="107.748" y1="157.964" x2="107.748" y2="146.362"/><circle class="cls-3" cx="93.599" cy="70.248" r="35.046"/><polyline class="cls-4" points="73.663 99.068 91.119 79.613 77.785 79.098 95.194 60.799 84.592 60.112 106.28 37.581"/><polyline class="cls-4" points="106.499 37.674 102.533 51.321 113.978 52.102 101.174 70.932 113.978 73.571 73.819 99.193"/><ellipse class="cls-3" cx="78.245" cy="116.572" rx="7.244" ry="6.218"/><ellipse class="cls-3" cx="108.953" cy="116.572" rx="7.244" ry="6.218"/><circle class="cls-5" cx="93.569" cy="93.91" r="82.017"/><circle class="cls-5" cx="93.569" cy="93.569" r="92.337" transform="translate(-35.218 123.972) rotate(-58.283)"/></svg>